<?xml version="1.0" encoding="UTF-8"?>
<svg id="Layer_8" data-name="Layer 8" xmlns="http://www.w3.org/2000/svg" xmlns:xlink="http://www.w3.org/1999/xlink" viewBox="0 0 453.84 443.04">
  <defs>
    <style>
      .cls-1, .cls-2 {
        fill: none;
      }

      .cls-3 {
        font-family: FuturaPT-Demi, 'Futura PT';
        font-size: 44.58px;
        font-weight: 300;
      }

      .cls-3, .cls-4 {
        fill: #282828;
      }

      .cls-5 {
        clip-path: url(#clippath);
      }

      .cls-6 {
        fill: #ef4136;
      }

      .cls-7 {
        letter-spacing: .03em;
      }

      .cls-2 {
        stroke: #282828;
        stroke-dasharray: 0 0 87.88 87.88;
        stroke-miterlimit: 10;
        stroke-width: 37px;
      }
    </style>
    <clipPath id="clippath">
      <rect class="cls-1" x="135.76" y="138.03" width="168.7" height="168.7"/>
    </clipPath>
  </defs>
  <circle class="cls-2" cx="222.97" cy="221.52" r="167.82" transform="translate(-91.33 222.55) rotate(-45)"/>
  <g class="cls-5">
    <g id="OYxYQN">
      <g>
        <path class="cls-6" d="M251.66,257.41c-1.18-2.9-2.26-5.57-3.38-8.23-.45-1.07-.28-1.91,.61-2.68,1.11-.96,2.11-2.06,3.25-2.97,7.36-5.86,14.75-11.68,22.14-17.51,1.42-1.12,2.87-2.19,4.42-3.37-2.44-1.08-4.64-2.08-6.86-3.04-1.37-.59-1.84-1.58-1.44-2.99,1.2-4.17,2.37-8.35,3.63-12.51,.55-1.8,1.29-3.55,1.93-5.3-4.52,1.25-8.9,2.6-13.34,3.65-4.51,1.07-5.11,.61-6.41-3.87-.49-1.7-.91-3.42-1.41-5.34-1.74,1.9-3.29,3.7-4.94,5.4-3.52,3.62-7.08,7.2-10.64,10.77-.41,.41-.99,.66-1.5,.99-.19-.09-.37-.18-.56-.27,.42-11.81,3.42-23.26,5.58-35.07-.57,.37-.93,.63-1.31,.86-2.7,1.65-5.4,3.29-8.09,4.96-1.08,.67-1.89,.41-2.54-.61-.56-.89-1.21-1.74-1.68-2.68-2.76-5.53-5.49-11.09-8.22-16.64-.25-.51-.49-1.02-.83-1.73-1.82,3.86-3.45,7.49-5.24,11.03-1.63,3.23-3.37,6.41-5.2,9.53-1.1,1.87-1.45,1.88-3.31,.87-1.29-.7-2.55-1.45-3.79-2.23-1.66-1.04-3.28-2.14-5.02-3.28,0,.43-.05,.71,0,.96,.67,3.27,1.46,6.53,2.01,9.82,1.17,7,2.25,14.02,3.3,21.04,.16,1.07-.05,2.2-.08,3.3-.19,.07-.37,.15-.56,.22-6.2-5.08-11.25-11.34-16.79-17.09-.8,2.61-1.45,5.09-2.32,7.49-.69,1.91-1.23,2.26-3.24,1.92-2.75-.46-5.47-1.1-8.17-1.81-2.49-.66-4.93-1.53-7.59-2.36,.21,.56,.34,.89,.45,1.23,1.63,5,3.4,9.97,4.85,15.02,1.06,3.71,.76,3.99-2.71,5.5-1.7,.74-3.41,1.45-5.23,2.22,.4,.34,.63,.56,.88,.76,6.43,4.97,12.9,9.88,19.28,14.91,3.27,2.59,6.36,5.41,9.55,8.11,.97,.82,1.18,1.72,.66,2.9-.76,1.72-1.41,3.48-2.12,5.22-.37,.91-.78,1.8-1.26,2.88,4.93-.74,9.58-1.51,14.25-2.1,4.77-.6,9.57-1.01,14.35-1.54,1.41-.16,1.89,.55,1.93,1.81,.04,1.33,.21,2.67,.14,3.99-.46,8.06-.97,16.12-1.45,24.19-.03,.58,0,1.15,0,1.72h4.93c-.33-4.27-.75-8.43-.93-12.59-.25-5.64-.37-11.28-.45-16.92-.03-2.07,.23-2.35,2.21-2.15,5.97,.6,11.94,1.3,17.89,2.05,3.4,.43,6.78,1.02,10.35,1.56Z"/>
        <path class="cls-4" d="M251.66,257.41c-3.58-.54-6.96-1.14-10.35-1.56-5.96-.75-11.92-1.44-17.89-2.05-1.98-.2-2.24,.08-2.21,2.15,.08,5.64,.2,11.28,.45,16.92,.19,4.16,.61,8.32,.93,12.59h-4.93c0-.56-.03-1.14,0-1.72,.48-8.06,1-16.12,1.45-24.19,.07-1.32-.1-2.66-.14-3.99-.04-1.26-.52-1.97-1.93-1.81-4.78,.53-9.58,.94-14.35,1.54-4.67,.59-9.32,1.37-14.25,2.1,.48-1.09,.89-1.98,1.26-2.88,.71-1.74,1.36-3.5,2.12-5.22,.52-1.18,.31-2.08-.66-2.9-3.19-2.7-6.27-5.52-9.55-8.11-6.37-5.04-12.85-9.95-19.28-14.91-.25-.19-.48-.41-.88-.76,1.82-.77,3.53-1.48,5.23-2.22,3.46-1.51,3.77-1.8,2.71-5.5-1.44-5.06-3.21-10.02-4.85-15.02-.11-.34-.24-.67-.45-1.23,2.66,.84,5.1,1.7,7.59,2.36,2.69,.71,5.42,1.35,8.17,1.81,2.01,.34,2.55,0,3.24-1.92,.86-2.4,1.52-4.87,2.32-7.49,5.54,5.74,10.59,12.01,16.79,17.09,.19-.07,.37-.15,.56-.22,.04-1.1,.24-2.23,.08-3.3-1.05-7.02-2.12-14.04-3.3-21.04-.55-3.29-1.34-6.55-2.01-9.82-.05-.26,0-.53,0-.96,1.74,1.14,3.36,2.24,5.02,3.28,1.24,.78,2.5,1.53,3.79,2.23,1.86,1.01,2.21,1,3.31-.87,1.83-3.12,3.57-6.3,5.2-9.53,1.79-3.55,3.42-7.18,5.24-11.03,.34,.71,.58,1.22,.83,1.73,2.74,5.55,5.46,11.1,8.22,16.64,.47,.94,1.11,1.79,1.68,2.68,.65,1.03,1.45,1.29,2.54,.61,2.69-1.67,5.39-3.31,8.09-4.96,.38-.23,.74-.49,1.31-.86-2.16,11.82-5.16,23.26-5.58,35.07,.19,.09,.37,.18,.56,.27,.5-.33,1.08-.57,1.5-.99,3.57-3.57,7.13-7.15,10.64-10.77,1.65-1.7,3.21-3.5,4.94-5.4,.5,1.92,.92,3.64,1.41,5.34,1.3,4.48,1.89,4.94,6.41,3.87,4.44-1.05,8.81-2.4,13.34-3.65-.64,1.75-1.38,3.5-1.93,5.3-1.26,4.15-2.43,8.33-3.63,12.51-.4,1.4,.06,2.4,1.44,2.99,2.22,.96,4.42,1.96,6.86,3.04-1.55,1.18-3,2.25-4.42,3.37-7.39,5.82-14.78,11.65-22.14,17.51-1.15,.91-2.14,2.01-3.25,2.97-.89,.77-1.06,1.61-.61,2.68,1.12,2.66,2.19,5.33,3.38,8.23Z"/>
      </g>
    </g>
  </g>
  <text class="cls-3" transform="translate(174.86 334.07)"><tspan class="cls-7" x="0" y="0">P</tspan><tspan x="25.23" y="0">WR</tspan></text>
</svg>